# xmcd CD database file
#
# Track frame offsets:
#	150
#	21184
#	44663
#	69555
#	94382
#	114548
#	137297
#	157211
#	180673
#	201002
#	220573
#	246409
#
# Disc length: 3557 seconds
#
# Revision: 0
# Processed by: cddbd v1.4PL0 Copyright (c) Steve Scherf et al.
# Submitted via: CDex 1.50Beta6
#
DISCID=ae0de30c
DTITLE=Keiko Matsui - Whisper From The Mirror
DYEAR=1900
DGENRE=New Age
TTITLE0=Whisper From The Mirror
TTITLE1=Invisible Wing
TTITLE2=Tears Of The Ocean
TTITLE3=Between The Moons
TTITLE4=Beyond The Light
TTITLE5=Torches On The Earth
TTITLE6=Dimensions
TTITLE7=Savanna, No Problem
TTITLE8=Midnight Stone
TTITLE9=See You There
TTITLE10=Ever After
TTITLE11=Trees
EXTD=
EXTT0=
EXTT1=
EXTT2=
EXTT3=
EXTT4=
EXTT5=
EXTT6=
EXTT7=
EXTT8=
EXTT9=
EXTT10=
EXTT11=
PLAYORDER=
